# xmcd
#
# Track frame offsets: 
#        150
#        14775
#        29089
#        38914
#        52031
#        71719
#        91444
#        104569
#        118774
#        141191
#        161441
#        178974
#        195906
#        201403
#
# Disc length: 2883 seconds
#
# Revision: 0
# Processed by: cddbd v1.5.2PL0 Copyright (c) Steve Scherf et al.
# Submitted via: ExactAudioCopy v0.99pb5
#
DISCID=d80b410e
DTITLE=Work III, John - Recording Black Culture
DYEAR=2008
DGENRE=Blues
TTITLE0=Poor Black Sheep
TTITLE1=Texas Traveller
TTITLE2=Daniel Saw The Stone
TTITLE3=Shine On Me
TTITLE4=I Am His, He Is Mine
TTITLE5=Walk Around In Dry Bones
TTITLE6=If I Had My Way
TTITLE7=My Captain's Angry
TTITLE8=Egypt Land
TTITLE9=Since I Laid My Burden Down
TTITLE10=Amazing Grace
TTITLE11=Ain't Gonna Drink No Mo'
TTITLE12=Interview With Muddy Waters
TTITLE13=Great God Attend
EXTD=
EXTT0=
EXTT1=
EXTT2=
EXTT3=
EXTT4=
EXTT5=
EXTT6=
EXTT7=
EXTT8=
EXTT9=
EXTT10=
EXTT11=
EXTT12=
EXTT13=
PLAYORDER=
